<svg width="32" height="47" viewBox="0 0 32 47" fill="none" xmlns="http://www.w3.org/2000/svg">
<path fill-rule="evenodd" clip-rule="evenodd" d="M23.744 7.14228C20.5966 7.46546 21.4844 10.0455 18.122 12.8146C16.024 14.5352 14.5714 15.4214 12.9575 16.6856C9.29952 19.5621 7.22798 22.8414 7.309 27.6799C8.16935 19.8843 14.464 16.2283 17.046 14.3194C13.3073 17.5986 11.5856 20.3138 10.4829 22.5456C8.14257 27.2758 8.03511 30.7709 12.7426 34.2381C14.6796 35.6365 17.3691 37.3294 17.8264 41.2272C16.6694 39.238 14.0602 37.034 11.9087 36.4154C16.347 39.8298 18.4182 42.4366 17.7457 46.9801C16.2657 40.7441 8.94969 38.8355 5.5334 33.4854C-2.45548 20.0184 12.6612 17.5986 17.0189 11.1207C12.3924 15.691 5.85611 16.8198 2.73609 23.5663C4.51102 16.6856 7.14697 14.589 9.19106 13.0565C12.769 10.4486 16.5345 9.58818 18.2559 4.69673C15.405 9.56242 12.6884 9.7772 8.59952 12.5182C5.34492 14.6964 2.22456 18.0563 1.41777 25.663C-2.05141 18.4049 1.90252 8.24429 7.09374 3.70178C12.4734 -1.00266 19.144 -1.94341 24.6583 5.15305C31.8675 9.40016 34.4495 19.0238 24.82 31.0663C31.7597 21.3352 30.1993 12.7607 26.1108 9.29243C30.9258 16.2815 27.8864 22.8678 25.062 28.701C23.3135 32.3024 23.8247 33.109 25.3579 36.7653C22.5871 34.3455 23.34 32.1144 20.3816 29.6956C18.3643 28.0824 15.8626 27.0878 14.1677 25.2598C13.2531 24.2381 12.9575 23.1364 14.1677 20.4209C14.8135 19.0506 15.5128 18.8087 16.2925 19.3189C17.0189 19.8301 19.4399 21.9802 19.763 20.1522C19.8437 19.6411 19.7362 19.3456 20.3003 19.1041C20.6769 18.9429 21.0535 19.0235 20.9461 18.4855C20.8922 18.2169 20.9728 18.1095 21.2956 18.056C21.6722 17.9753 21.6454 17.8412 21.5915 17.4106C21.4301 16.3621 22.2637 16.4966 22.7752 16.3354C23.259 16.1741 23.259 15.7984 23.1247 15.3675C23.044 15.126 22.9905 14.8841 22.9098 14.6426C22.6674 13.7821 22.6406 13.2174 22.7484 12.6266L23.6895 12.5182L22.8559 12.196C23.582 10.4215 24.12 9.61594 23.7437 7.14262L23.744 7.14228ZM25.9227 13.2174C26.4068 15.3675 26.2183 17.6264 25.6803 19.6963C24.7393 23.2709 23.2057 24.4803 22.4796 28.8355C22.6945 24.2384 24.0935 22.7336 25.0349 19.4534C25.5461 17.6799 25.8688 15.6372 25.9227 13.2174ZM11.5856 2.03505C4.96898 5.12595 1.36455 12.5717 1.25709 19.7498C2.62896 12.7339 4.86152 6.71239 11.5856 2.03505Z" fill="#CDA582"/>
</svg>
