<svg width="191" height="16" viewBox="0 0 191 16" fill="none" xmlns="http://www.w3.org/2000/svg">
<path d="M2.60272 11.72V10.265H8.39272V11.72H2.60272ZM0.352718 14L4.59772 4.28H6.42772L10.7027 14H8.85772L5.13772 5.225H5.88772L2.18272 14H0.352718ZM17.096 14.18C16.266 14.18 15.516 14.07 14.846 13.85C14.176 13.63 13.601 13.31 13.121 12.89C12.651 12.46 12.286 11.935 12.026 11.315C11.776 10.695 11.651 9.995 11.651 9.215C11.651 8.425 11.786 7.715 12.056 7.085C12.326 6.455 12.711 5.92 13.211 5.48C13.711 5.03 14.306 4.69 14.996 4.46C15.686 4.22 16.446 4.1 17.276 4.1C18.246 4.1 19.086 4.25 19.796 4.55C20.506 4.85 21.071 5.27 21.491 5.81C21.911 6.34 22.151 6.97 22.211 7.7H20.636C20.506 7.27 20.291 6.9 19.991 6.59C19.701 6.28 19.326 6.04 18.866 5.87C18.416 5.69 17.886 5.6 17.276 5.6C16.476 5.6 15.781 5.755 15.191 6.065C14.611 6.365 14.166 6.79 13.856 7.34C13.546 7.88 13.391 8.505 13.391 9.215C13.391 9.925 13.526 10.54 13.796 11.06C14.076 11.57 14.496 11.97 15.056 12.26C15.616 12.54 16.311 12.68 17.141 12.68C17.781 12.68 18.341 12.585 18.821 12.395C19.311 12.195 19.716 11.92 20.036 11.57C20.356 11.22 20.581 10.815 20.711 10.355L21.476 10.175C21.336 11.465 20.876 12.455 20.096 13.145C19.326 13.835 18.326 14.18 17.096 14.18ZM21.071 14C21.071 13.68 21.086 13.32 21.116 12.92C21.146 12.51 21.181 12.095 21.221 11.675C21.271 11.245 21.316 10.86 21.356 10.52H17.336V9.29H22.586V14H21.071ZM26.6926 9.86V12.53H33.5176V14H24.9826V4.28H33.5026V5.75H26.6926V8.45H32.2726V9.86H26.6926ZM44.8731 12.23L44.3631 12.425V4.28H46.0581V14H44.3631L37.0731 6.095L37.5981 5.9V14H35.8881V4.28H37.5981L44.8731 12.23ZM53.3628 4.28C54.4128 4.28 55.2928 4.41 56.0028 4.67C56.7128 4.93 57.2778 5.285 57.6978 5.735C58.1178 6.175 58.4178 6.685 58.5978 7.265C58.7878 7.845 58.8828 8.455 58.8828 9.095C58.8828 9.745 58.7828 10.365 58.5828 10.955C58.3828 11.545 58.0628 12.07 57.6228 12.53C57.1928 12.98 56.6278 13.34 55.9278 13.61C55.2278 13.87 54.3728 14 53.3628 14H48.6978V4.28H53.3628ZM50.4078 12.5H53.3478C54.0878 12.5 54.7028 12.405 55.1928 12.215C55.6828 12.025 56.0728 11.77 56.3628 11.45C56.6528 11.12 56.8578 10.755 56.9778 10.355C57.0978 9.945 57.1578 9.525 57.1578 9.095C57.1578 8.665 57.0978 8.255 56.9778 7.865C56.8578 7.465 56.6528 7.11 56.3628 6.8C56.0728 6.48 55.6828 6.23 55.1928 6.05C54.7028 5.86 54.0878 5.765 53.3478 5.765H50.4078V12.5ZM62.0519 11.72V10.265H67.8419V11.72H62.0519ZM59.8019 14L64.0469 4.28H65.8769L70.1519 14H68.3069L64.5869 5.225H65.3369L61.6319 14H59.8019ZM71.9004 14V4.28H77.6454C78.3654 4.28 78.9904 4.385 79.5204 4.595C80.0504 4.795 80.4604 5.11 80.7504 5.54C81.0404 5.96 81.1854 6.5 81.1854 7.16C81.1854 7.6 81.1104 7.98 80.9604 8.3C80.8104 8.61 80.6004 8.865 80.3304 9.065C80.0604 9.265 79.7454 9.42 79.3854 9.53C79.0354 9.64 78.6604 9.71 78.2604 9.74L78.1104 9.635C78.7504 9.645 79.2804 9.705 79.7004 9.815C80.1204 9.915 80.4404 10.11 80.6604 10.4C80.8804 10.68 80.9904 11.095 80.9904 11.645V14H79.2954V11.735C79.2954 11.355 79.2254 11.06 79.0854 10.85C78.9554 10.63 78.7254 10.48 78.3954 10.4C78.0754 10.31 77.6154 10.265 77.0154 10.265H73.6104V14H71.9004ZM73.6104 8.87H77.6454C78.2454 8.87 78.7004 8.72 79.0104 8.42C79.3204 8.12 79.4754 7.725 79.4754 7.235C79.4754 6.765 79.3204 6.405 79.0104 6.155C78.7004 5.895 78.2454 5.765 77.6454 5.765H73.6104V8.87ZM88.8396 8.405H95.9796V9.86H88.8396V8.405ZM95.7396 4.28H97.4346V14H95.7396V4.28ZM87.3246 4.28H89.0346V14H87.3246V4.28ZM105.326 14.18C104.186 14.18 103.191 13.975 102.341 13.565C101.501 13.155 100.846 12.575 100.376 11.825C99.9158 11.075 99.6858 10.18 99.6858 9.14C99.6858 8.1 99.9158 7.205 100.376 6.455C100.846 5.695 101.501 5.115 102.341 4.715C103.191 4.305 104.186 4.1 105.326 4.1C106.476 4.1 107.471 4.305 108.311 4.715C109.151 5.115 109.801 5.695 110.261 6.455C110.731 7.205 110.966 8.1 110.966 9.14C110.966 10.18 110.731 11.075 110.261 11.825C109.801 12.575 109.151 13.155 108.311 13.565C107.471 13.975 106.476 14.18 105.326 14.18ZM105.326 12.68C106.086 12.68 106.756 12.55 107.336 12.29C107.916 12.03 108.371 11.64 108.701 11.12C109.041 10.59 109.211 9.93 109.211 9.14C109.211 8.36 109.041 7.71 108.701 7.19C108.371 6.66 107.916 6.265 107.336 6.005C106.756 5.735 106.086 5.6 105.326 5.6C104.576 5.6 103.906 5.735 103.316 6.005C102.726 6.265 102.261 6.66 101.921 7.19C101.581 7.71 101.411 8.36 101.411 9.14C101.411 9.93 101.581 10.59 101.921 11.12C102.261 11.64 102.726 12.03 103.316 12.29C103.906 12.55 104.576 12.68 105.326 12.68ZM113.222 14V4.28H118.967C119.687 4.28 120.312 4.385 120.842 4.595C121.372 4.795 121.782 5.11 122.072 5.54C122.362 5.96 122.507 6.5 122.507 7.16C122.507 7.6 122.432 7.98 122.282 8.3C122.132 8.61 121.922 8.865 121.652 9.065C121.382 9.265 121.067 9.42 120.707 9.53C120.357 9.64 119.982 9.71 119.582 9.74L119.432 9.635C120.072 9.645 120.602 9.705 121.022 9.815C121.442 9.915 121.762 10.11 121.982 10.4C122.202 10.68 122.312 11.095 122.312 11.645V14H120.617V11.735C120.617 11.355 120.547 11.06 120.407 10.85C120.277 10.63 120.047 10.48 119.717 10.4C119.397 10.31 118.937 10.265 118.337 10.265H114.932V14H113.222ZM114.932 8.87H118.967C119.567 8.87 120.022 8.72 120.332 8.42C120.642 8.12 120.797 7.725 120.797 7.235C120.797 6.765 120.642 6.405 120.332 6.155C120.022 5.895 119.567 5.765 118.967 5.765H114.932V8.87ZM126.24 11.72V10.265H132.03V11.72H126.24ZM123.99 14L128.235 4.28H130.065L134.34 14H132.495L128.775 5.225H129.525L125.82 14H123.99ZM128.28 3.035L130.155 0.649999H132.36L129.855 3.035H128.28ZM136.088 14V4.28H141.833C142.553 4.28 143.178 4.385 143.708 4.595C144.238 4.795 144.648 5.11 144.938 5.54C145.228 5.96 145.373 6.5 145.373 7.16C145.373 7.6 145.298 7.98 145.148 8.3C144.998 8.61 144.788 8.865 144.518 9.065C144.248 9.265 143.933 9.42 143.573 9.53C143.223 9.64 142.848 9.71 142.448 9.74L142.298 9.635C142.938 9.645 143.468 9.705 143.888 9.815C144.308 9.915 144.628 10.11 144.848 10.4C145.068 10.68 145.178 11.095 145.178 11.645V14H143.483V11.735C143.483 11.355 143.413 11.06 143.273 10.85C143.143 10.63 142.913 10.48 142.583 10.4C142.263 10.31 141.803 10.265 141.203 10.265H137.798V14H136.088ZM137.798 8.87H141.833C142.433 8.87 142.888 8.72 143.198 8.42C143.508 8.12 143.663 7.725 143.663 7.235C143.663 6.765 143.508 6.405 143.198 6.155C142.888 5.895 142.433 5.765 141.833 5.765H137.798V8.87ZM148.04 4.28H149.75V14H148.04V4.28ZM157.92 14.18C156.78 14.18 155.785 13.975 154.935 13.565C154.095 13.155 153.44 12.575 152.97 11.825C152.51 11.075 152.28 10.18 152.28 9.14C152.28 8.1 152.51 7.205 152.97 6.455C153.44 5.695 154.095 5.115 154.935 4.715C155.785 4.305 156.78 4.1 157.92 4.1C159.07 4.1 160.065 4.305 160.905 4.715C161.745 5.115 162.395 5.695 162.855 6.455C163.325 7.205 163.56 8.1 163.56 9.14C163.56 10.18 163.325 11.075 162.855 11.825C162.395 12.575 161.745 13.155 160.905 13.565C160.065 13.975 159.07 14.18 157.92 14.18ZM157.92 12.68C158.68 12.68 159.35 12.55 159.93 12.29C160.51 12.03 160.965 11.64 161.295 11.12C161.635 10.59 161.805 9.93 161.805 9.14C161.805 8.36 161.635 7.71 161.295 7.19C160.965 6.66 160.51 6.265 159.93 6.005C159.35 5.735 158.68 5.6 157.92 5.6C157.17 5.6 156.5 5.735 155.91 6.005C155.32 6.265 154.855 6.66 154.515 7.19C154.175 7.71 154.005 8.36 154.005 9.14C154.005 9.93 154.175 10.59 154.515 11.12C154.855 11.64 155.32 12.03 155.91 12.29C156.5 12.55 157.17 12.68 157.92 12.68ZM183.417 1.10938C187.431 1.10938 190.683 4.36133 190.683 8.375C190.683 12.3887 187.431 15.6406 183.417 15.6406C179.404 15.6406 176.152 12.3887 176.152 8.375C176.152 4.36133 179.404 1.10938 183.417 1.10938ZM186.113 10.2793C186.171 10.2207 186.23 10.1035 186.23 9.98633C186.23 9.83984 186.142 9.72266 186.054 9.63477L184.355 8.375V4.15625C184.355 3.92188 184.12 3.6875 183.886 3.6875H182.949C182.685 3.6875 182.48 3.92188 182.48 4.15625V8.72656C182.48 9.10742 182.626 9.42969 182.919 9.63477L184.882 11.0996C184.941 11.1582 185.058 11.2168 185.146 11.2168C185.322 11.2168 185.439 11.1289 185.527 11.0117L186.113 10.2793Z" fill="white"/>
</svg>
