<svg width="18" height="19" viewBox="0 0 18 19" fill="none" xmlns="http://www.w3.org/2000/svg">
<path d="M6.1875 7.84375C5.87109 7.84375 5.625 7.59766 5.625 7.28125V6.71875C5.625 6.4375 5.87109 6.15625 6.1875 6.15625H11.8125C12.0938 6.15625 12.375 6.4375 12.375 6.71875V7.28125C12.375 7.59766 12.0938 7.84375 11.8125 7.84375H6.1875ZM5.625 10.6562V10.0938C5.625 9.8125 5.87109 9.53125 6.1875 9.53125H11.8125C12.0938 9.53125 12.375 9.8125 12.375 10.0938V10.6562C12.375 10.9727 12.0938 11.2188 11.8125 11.2188H6.1875C5.87109 11.2188 5.625 10.9727 5.625 10.6562ZM9 14.9453C9.5625 14.9453 10.125 14.7695 10.6172 14.3828L18 9.07422V16.5625C18 17.5117 17.2266 18.25 16.3125 18.25H1.6875C0.738281 18.25 0 17.5117 0 16.5625V9.07422L7.34766 14.3828C7.83984 14.7695 8.40234 14.9453 9 14.9453ZM17.332 5.98047C17.7539 6.33203 18 6.78906 18 7.31641V7.70312L14.625 10.1289V3.625H3.375V10.1289L0 7.70312V7.31641C0 6.78906 0.246094 6.29688 0.632812 5.98047C0.949219 5.76953 1.23047 5.52344 1.6875 5.20703V3.625C1.6875 2.71094 2.42578 1.9375 3.375 1.9375H6.08203C6.1875 1.86719 6.29297 1.79688 6.39844 1.72656C6.99609 1.30469 8.15625 0.25 9 0.25C9.80859 0.25 10.9688 1.30469 11.5664 1.72656C11.6719 1.79688 11.7773 1.86719 11.8828 1.9375H14.625C15.5391 1.9375 16.3125 2.71094 16.3125 3.625V5.20703C16.7344 5.52344 17.0156 5.76953 17.332 5.98047Z" fill="white"/>
</svg>
