<svg width="16" height="19" viewBox="0 0 16 19" fill="none" xmlns="http://www.w3.org/2000/svg">
<path d="M4.66016 18.0742C0.0898438 13.5391 0.0898438 6.12109 4.66016 1.58594C4.87109 1.375 5.15234 1.33984 5.39844 1.48047L7.68359 2.92188C7.85938 3.02734 7.96484 3.20312 7.96484 3.41406C7.96484 3.48438 7.96484 3.58984 7.92969 3.66016L6.76953 6.50781C6.69922 6.71875 6.48828 6.85938 6.20703 6.85938H6.17188L4.20312 6.68359C3.46484 8.72266 3.46484 10.9727 4.20312 12.9766L6.17188 12.8008H6.20703C6.48828 12.8008 6.69922 12.9414 6.76953 13.1523L7.92969 16C7.96484 16.0703 7.96484 16.1758 7.96484 16.2461C7.96484 16.457 7.85938 16.6328 7.68359 16.7383L5.39844 18.1797C5.29297 18.25 5.1875 18.25 5.08203 18.25C4.90625 18.25 4.76562 18.2148 4.66016 18.0742ZM9.93359 3.625C10.3203 4.32812 10.3203 5.20703 9.93359 5.91016C9.79297 6.15625 9.47656 6.19141 9.26562 6.01562L9.05469 5.80469C8.91406 5.66406 8.87891 5.45312 8.98438 5.27734C9.05469 5.13672 9.08984 4.96094 9.08984 4.78516C9.08984 4.57422 9.05469 4.39844 8.98438 4.25781C8.87891 4.08203 8.91406 3.87109 9.05469 3.73047L9.26562 3.51953C9.47656 3.34375 9.79297 3.37891 9.93359 3.625ZM13.1328 0.425781C15.2773 2.92188 15.2773 6.61328 13.1328 9.10938C12.9922 9.32031 12.7109 9.32031 12.5352 9.14453L12.3242 8.96875C12.1836 8.79297 12.1484 8.54688 12.2891 8.37109C14.0469 6.29688 14.0469 3.23828 12.2891 1.16406C12.1484 0.988281 12.1836 0.742188 12.3242 0.566406L12.5352 0.390625C12.7109 0.214844 12.9922 0.214844 13.1328 0.425781ZM11.5156 2.00781C12.7812 3.625 12.8164 5.91016 11.5156 7.52734C11.375 7.73828 11.0938 7.77344 10.918 7.59766L10.707 7.38672C10.5312 7.24609 10.5312 7 10.6367 6.82422C11.5859 5.62891 11.5859 3.90625 10.6367 2.71094C10.5312 2.53516 10.5312 2.28906 10.707 2.14844L10.918 1.9375C11.0938 1.76172 11.375 1.79688 11.5156 2.00781Z" fill="white"/>
</svg>
